<?xml version="1.0" encoding="UTF-8" standalone="no"?>
<!-- Created with Inkscape (http://www.inkscape.org/) -->

<svg
   xmlns:dc="http://purl.org/dc/elements/1.1/"
   xmlns:cc="http://creativecommons.org/ns#"
   xmlns:rdf="http://www.w3.org/1999/02/22-rdf-syntax-ns#"
   xmlns:svg="http://www.w3.org/2000/svg"
   xmlns="http://www.w3.org/2000/svg"
   xmlns:sodipodi="http://sodipodi.sourceforge.net/DTD/sodipodi-0.dtd"
   xmlns:inkscape="http://www.inkscape.org/namespaces/inkscape"
   width="210mm"
   height="297mm"
   viewBox="0 0 210 297"
   version="1.1"
   id="svg8"
   inkscape:version="0.92.0 r15299"
   sodipodi:docname="icons.svg">
  <defs
     id="defs2" />
  <sodipodi:namedview
     id="base"
     pagecolor="#ffffff"
     bordercolor="#666666"
     borderopacity="1.0"
     inkscape:pageopacity="0.0"
     inkscape:pageshadow="2"
     inkscape:zoom="0.98994949"
     inkscape:cx="-690.6406"
     inkscape:cy="730.63735"
     inkscape:document-units="mm"
     inkscape:current-layer="layer1"
     showgrid="false"
     showguides="true"
     inkscape:guide-bbox="true"
     inkscape:window-width="1920"
     inkscape:window-height="1017"
     inkscape:window-x="-8"
     inkscape:window-y="-8"
     inkscape:window-maximized="1"
     inkscape:pagecheckerboard="true">
    <sodipodi:guide
       position="-256.0442,234.92992"
       orientation="1,0"
       id="guide4512"
       inkscape:locked="false" />
  </sodipodi:namedview>
  <metadata
     id="metadata5">
    <rdf:RDF>
      <cc:Work
         rdf:about="">
        <dc:format>image/svg+xml</dc:format>
        <dc:type
           rdf:resource="http://purl.org/dc/dcmitype/StillImage" />
        <dc:title></dc:title>
      </cc:Work>
    </rdf:RDF>
  </metadata>
  <g
     inkscape:label="Layer 1"
     inkscape:groupmode="layer"
     id="layer1">
    <g
       id="g4539"
       inkscape:export-xdpi="10.31"
       inkscape:export-ydpi="10.31">
      <rect
         transform="scale(-1)"
         inkscape:export-ydpi="10.308898"
         inkscape:export-xdpi="10.308898"
         y="-99.487823"
         x="200.98669"
         height="78.844513"
         width="78.844513"
         id="rect4518"
         style="fill:#ffffff;fill-opacity:1;stroke:none;stroke-width:8.37174225;stroke-miterlimit:4;stroke-dasharray:none;stroke-opacity:1" />
      <path
         inkscape:export-ydpi="10.308898"
         inkscape:export-xdpi="10.308898"
         sodipodi:nodetypes="cccccccccscccccccccccscsccccccccscccccccscc"
         inkscape:connector-curvature="0"
         id="path4507"
         d="m -219.516,48.090345 0.034,4.624809 10.89903,0.03305 -0.86083,0.0331 v 7.242994 7.24299 l 0.86083,0.03305 -10.89903,0.0331 -0.0339,4.754178 c -0.0214,2.995681 -0.0808,4.754178 -0.16072,4.754178 -0.0697,0 -0.25822,-0.111566 -0.41885,-0.247922 -0.50763,-0.430912 -1.67871,-1.338502 -2.75,-2.131245 -0.56921,-0.421212 -1.06403,-0.804517 -1.0996,-0.851787 -0.0356,-0.04728 -0.41398,-0.341207 -0.84088,-0.65318 -0.71641,-0.523547 -1.80102,-1.372552 -2.48036,-1.941576 -0.15462,-0.12952 -0.4457,-0.340292 -0.64683,-0.46838 -0.20112,-0.128087 -0.39478,-0.266051 -0.43036,-0.306589 -0.0356,-0.04053 -0.44307,-0.359347 -0.90556,-0.708465 -0.46247,-0.349117 -0.86998,-0.670649 -0.90555,-0.714522 -0.0356,-0.04386 -0.41397,-0.333584 -0.84088,-0.643816 -0.4269,-0.310228 -0.80529,-0.599617 -0.84087,-0.643088 -0.0356,-0.04347 -0.64683,-0.512786 -1.35834,-1.042934 -0.71151,-0.530148 -1.41008,-1.061376 -1.55238,-1.180511 -0.58604,-0.490632 -2.58876,-2.033359 -4.84361,-3.731101 -1.72317,-1.297426 -1.79431,-1.435038 -0.99734,-1.929288 0.22418,-0.139025 0.52403,-0.359982 0.66633,-0.491018 0.26014,-0.239542 1.32753,-1.081794 2.58883,-2.042796 2.33003,-1.775277 3.88716,-2.98446 5.02416,-3.901462 0.13154,-0.10609 0.59725,-0.456372 1.03492,-0.778402 0.43767,-0.322031 0.82487,-0.627374 0.86045,-0.678541 0.0356,-0.05117 0.38486,-0.33377 0.77619,-0.628009 0.39133,-0.294235 1.06808,-0.814095 1.50388,-1.155243 0.43581,-0.341148 1.36724,-1.056199 2.06985,-1.589006 0.70261,-0.532808 1.30658,-1.001242 1.34215,-1.040958 0.0356,-0.0397 0.44308,-0.35786 0.90556,-0.706973 0.46248,-0.349118 0.86998,-0.670655 0.90556,-0.714522 0.0356,-0.04386 0.41397,-0.333585 0.84087,-0.643817 0.42691,-0.310232 0.8053,-0.598736 0.84088,-0.641127 0.0356,-0.04239 0.32664,-0.278882 0.64683,-0.525542 0.32017,-0.246661 0.60154,-0.492568 0.62526,-0.546459 0.0237,-0.05389 0.12486,-0.09799 0.22476,-0.09799 0.15191,0 0.18719,0.756738 0.21561,4.624815 z"
         style="fill:#000000;stroke-width:0.12936537" />
      <path
         inkscape:export-ydpi="10.308898"
         inkscape:export-xdpi="10.308898"
         inkscape:connector-curvature="0"
         id="path4516"
         d="m -224.7737,89.866116 -31.27053,0 V 29.99774 h 31.27053"
         style="fill:none;stroke:#000000;stroke-width:9.36499977;stroke-linecap:butt;stroke-linejoin:miter;stroke-miterlimit:4;stroke-dasharray:none;stroke-opacity:1" />
    </g>
    <g
       id="g4550"
       inkscape:export-xdpi="10.31"
       inkscape:export-ydpi="10.31">
      <rect
         transform="scale(-1)"
         inkscape:export-ydpi="5.1500001"
         inkscape:export-xdpi="5.1500001"
         style="fill:#ffffff;fill-opacity:1;stroke:none;stroke-width:8.37174225;stroke-miterlimit:4;stroke-dasharray:none;stroke-opacity:1"
         id="rect4520"
         width="78.844513"
         height="78.844513"
         x="200.98669"
         y="-193.03215" />
      <path
         inkscape:export-ydpi="5.1500001"
         inkscape:export-xdpi="5.1500001"
         style="fill:#000000;stroke-width:0.12936537"
         d="m -230.14484,165.76149 -0.034,-4.62481 -10.89903,-0.0331 0.86083,-0.0331 v -7.243 -7.24299 l -0.86083,-0.0331 10.89903,-0.0331 0.0339,-4.75418 c 0.0214,-2.99568 0.0808,-4.75417 0.16072,-4.75417 0.0697,0 0.25822,0.11156 0.41885,0.24792 0.50763,0.43091 1.67871,1.3385 2.75,2.13124 0.56921,0.42122 1.06403,0.80452 1.0996,0.85179 0.0356,0.0473 0.41398,0.34121 0.84088,0.65318 0.71641,0.52355 1.80102,1.37255 2.48036,1.94158 0.15462,0.12952 0.4457,0.34029 0.64683,0.46838 0.20112,0.12808 0.39478,0.26605 0.43036,0.30659 0.0356,0.0405 0.44307,0.35934 0.90556,0.70846 0.46247,0.34912 0.86998,0.67065 0.90555,0.71452 0.0356,0.0439 0.41397,0.33359 0.84088,0.64382 0.4269,0.31023 0.80529,0.59962 0.84087,0.64309 0.0356,0.0435 0.64683,0.51278 1.35834,1.04293 0.71151,0.53015 1.41008,1.06138 1.55238,1.18051 0.58604,0.49063 2.58876,2.03336 4.84361,3.7311 1.72317,1.29743 1.79431,1.43504 0.99734,1.92929 -0.22418,0.13903 -0.52403,0.35998 -0.66633,0.49102 -0.26014,0.23954 -1.32753,1.08179 -2.58883,2.04279 -2.33003,1.77528 -3.88716,2.98446 -5.02416,3.90147 -0.13154,0.10609 -0.59725,0.45637 -1.03492,0.7784 -0.43767,0.32203 -0.82487,0.62737 -0.86045,0.67854 -0.0356,0.0512 -0.38486,0.33377 -0.77619,0.62801 -0.39133,0.29423 -1.06808,0.81409 -1.50388,1.15524 -0.43581,0.34115 -1.36724,1.0562 -2.06985,1.58901 -0.70261,0.53281 -1.30658,1.00124 -1.34215,1.04096 -0.0356,0.0397 -0.44308,0.35786 -0.90556,0.70697 -0.46248,0.34912 -0.86998,0.67065 -0.90556,0.71452 -0.0356,0.0439 -0.41397,0.33359 -0.84087,0.64382 -0.42691,0.31023 -0.8053,0.59873 -0.84088,0.64112 -0.0356,0.0424 -0.32664,0.27889 -0.64683,0.52555 -0.32017,0.24666 -0.60154,0.49256 -0.62526,0.54646 -0.0237,0.0539 -0.12486,0.098 -0.22476,0.098 -0.15191,0 -0.18719,-0.75674 -0.21561,-4.62482 z"
         id="path4522"
         inkscape:connector-curvature="0"
         sodipodi:nodetypes="cccccccccscccccccccccscsccccccccscccccccscc" />
      <path
         inkscape:export-ydpi="5.1500001"
         inkscape:export-xdpi="5.1500001"
         style="fill:none;stroke:#000000;stroke-width:9.36499977;stroke-linecap:butt;stroke-linejoin:miter;stroke-miterlimit:4;stroke-dasharray:none;stroke-opacity:1"
         d="m -224.7737,183.41045 h -31.27053 v -59.86838 h 31.27053"
         id="path4524"
         inkscape:connector-curvature="0" />
    </g>
    <g
       id="icon"
       inkscape:export-xdpi="20.620001"
       inkscape:export-ydpi="20.620001"
       inkscape:label="#g4573">
      <rect
         transform="scale(-1)"
         style="fill:none;fill-opacity:1;stroke:none;stroke-width:8.37174225;stroke-miterlimit:4;stroke-dasharray:none;stroke-opacity:1"
         id="rect4526"
         width="78.844513"
         height="78.844513"
         x="72.162788"
         y="-99.487816"
         inkscape:export-xdpi="10.31"
         inkscape:export-ydpi="10.31" />
      <path
         style="fill:#ffffff;stroke-width:0.12936537"
         d="m -108.00555,48.090345 0.034,4.624809 10.89903,0.03305 -0.86083,0.0331 v 7.242994 l 0,7.24299 0.86083,0.03305 -10.89903,0.0331 -0.0339,4.754178 c -0.0214,2.995681 -0.0808,4.754178 -0.16072,4.754178 -0.0697,0 -0.25822,-0.111566 -0.41885,-0.247922 -0.50763,-0.430912 -1.67871,-1.338502 -2.75,-2.131245 -0.56921,-0.421212 -1.06403,-0.804517 -1.0996,-0.851787 -0.0356,-0.04728 -0.41398,-0.341207 -0.84088,-0.65318 -0.71641,-0.523547 -1.80102,-1.372552 -2.48036,-1.941576 -0.15462,-0.12952 -0.4457,-0.340292 -0.64683,-0.46838 -0.20112,-0.128087 -0.39478,-0.266051 -0.43036,-0.306589 -0.0356,-0.04053 -0.44307,-0.359347 -0.90556,-0.708465 -0.46247,-0.349117 -0.86998,-0.670649 -0.90555,-0.714522 -0.0356,-0.04386 -0.41397,-0.333584 -0.84088,-0.643816 -0.4269,-0.310228 -0.80529,-0.599617 -0.84087,-0.643088 -0.0356,-0.04347 -0.64683,-0.512786 -1.35834,-1.042934 -0.71151,-0.530148 -1.41008,-1.061376 -1.55238,-1.180511 -0.58603,-0.490632 -2.58874,-2.033359 -4.84358,-3.731101 -1.72317,-1.297426 -1.79431,-1.435038 -0.99734,-1.929288 0.22418,-0.139025 0.52403,-0.359982 0.66633,-0.491018 0.26014,-0.239542 1.32752,-1.081794 2.58882,-2.042796 2.33001,-1.775277 3.88714,-2.98446 5.02414,-3.901462 0.13154,-0.10609 0.59725,-0.456372 1.03492,-0.778402 0.43767,-0.322031 0.82487,-0.627374 0.86045,-0.678541 0.0356,-0.05117 0.38486,-0.33377 0.77619,-0.628009 0.39133,-0.294235 1.06808,-0.814095 1.50388,-1.155243 0.43581,-0.341148 1.36724,-1.056199 2.06985,-1.589006 0.70261,-0.532808 1.30658,-1.001242 1.34215,-1.040958 0.0356,-0.0397 0.44308,-0.35786 0.90556,-0.706973 0.46248,-0.349118 0.86998,-0.670655 0.90556,-0.714522 0.0356,-0.04386 0.41397,-0.333585 0.84087,-0.643817 0.42691,-0.310232 0.8053,-0.598736 0.84088,-0.641127 0.0356,-0.04239 0.32664,-0.278882 0.64683,-0.525542 0.32017,-0.246661 0.60154,-0.492568 0.62526,-0.546459 0.0237,-0.05389 0.12486,-0.09799 0.22476,-0.09799 0.15191,0 0.18719,0.756738 0.21561,4.624815 z"
         id="path4528"
         inkscape:connector-curvature="0"
         sodipodi:nodetypes="cccccccccscccccccccccscsccccccccscccccccscc"
         inkscape:export-xdpi="10.31"
         inkscape:export-ydpi="10.31" />
      <path
         style="fill:none;stroke:#ffffff;stroke-width:9.36499977;stroke-linecap:butt;stroke-linejoin:miter;stroke-miterlimit:4;stroke-dasharray:none;stroke-opacity:1"
         d="m -110.8793,89.866116 -31.27051,0 V 29.99774 h 31.27051"
         id="path4530"
         inkscape:connector-curvature="0"
         inkscape:export-xdpi="10.31"
         inkscape:export-ydpi="10.31" />
      <path
         inkscape:export-ydpi="10.31"
         inkscape:export-xdpi="10.31"
         sodipodi:nodetypes="cccccccccscccccccccccscsccccccccscccccccscc"
         inkscape:connector-curvature="0"
         id="path4534"
         d="m -95.45101,71.991297 -0.034,-4.624809 -10.89903,-0.03305 0.86083,-0.0331 0,-7.242994 v -7.24299 l -0.86083,-0.03305 10.89903,-0.0331 0.0339,-4.754178 c 0.0214,-2.995681 0.0808,-4.754178 0.16072,-4.754178 0.0697,0 0.25822,0.111566 0.41885,0.247922 0.50763,0.430912 1.67871,1.338502 2.75,2.131245 0.56921,0.421212 1.06403,0.804517 1.0996,0.851787 0.0356,0.04728 0.41398,0.341207 0.84088,0.65318 0.71641,0.523547 1.80102,1.372552 2.48036,1.941576 0.15462,0.12952 0.4457,0.340292 0.64683,0.46838 0.20112,0.128087 0.39478,0.266051 0.43036,0.306589 0.0356,0.04053 0.44307,0.359347 0.90556,0.708465 0.46247,0.349117 0.86998,0.670649 0.90555,0.714522 0.0356,0.04386 0.41397,0.333584 0.84088,0.643816 0.4269,0.310228 0.80529,0.599617 0.84087,0.643088 0.0356,0.04347 0.64683,0.512786 1.35834,1.042934 0.71151,0.530148 1.41008,1.061376 1.55238,1.180511 0.58604,0.490632 2.58876,2.033359 4.84361,3.731101 1.72317,1.297426 1.79431,1.435038 0.99734,1.929288 -0.22418,0.139025 -0.52403,0.359982 -0.66633,0.491018 -0.26014,0.239542 -1.32753,1.081794 -2.58883,2.042796 -2.33003,1.775277 -3.88716,2.98446 -5.02416,3.901462 -0.13154,0.10609 -0.59725,0.456372 -1.03492,0.778402 -0.43767,0.322031 -0.82487,0.627374 -0.86045,0.678541 -0.0356,0.05117 -0.38486,0.33377 -0.77619,0.628009 -0.39133,0.294235 -1.06808,0.814095 -1.50388,1.155243 -0.43581,0.341148 -1.36724,1.056199 -2.06985,1.589006 -0.70261,0.532808 -1.30658,1.001242 -1.34215,1.040958 -0.0356,0.0397 -0.44308,0.35786 -0.90556,0.706973 -0.46248,0.349118 -0.86998,0.670655 -0.90556,0.714522 -0.0356,0.04386 -0.41397,0.333585 -0.84087,0.643817 -0.42691,0.310232 -0.8053,0.598736 -0.84088,0.641127 -0.0356,0.04239 -0.32664,0.278882 -0.64683,0.525542 -0.32017,0.246661 -0.60154,0.492568 -0.62526,0.546459 -0.0237,0.05389 -0.12486,0.09799 -0.22476,0.09799 -0.15191,0 -0.18719,-0.756738 -0.21561,-4.624815 z"
         style="fill:#ffffff;stroke-width:0.12936537" />
    </g>
    <path
       inkscape:export-ydpi="10.308898"
       inkscape:export-xdpi="10.308898"
       sodipodi:nodetypes="cccccccccscccccccccccscsccccccccscccccccscc"
       inkscape:connector-curvature="0"
       id="path4560"
       d="m -99.24471,146.7128 0.034,4.62481 10.89903,0.033 -0.86083,0.0331 v 7.24299 7.24299 l 0.86083,0.0331 -10.89903,0.0331 -0.0339,4.75418 c -0.0214,2.99568 -0.0808,4.75418 -0.16072,4.75418 -0.0697,0 -0.25822,-0.11157 -0.41885,-0.24792 -0.50763,-0.43091 -1.67871,-1.3385 -2.75,-2.13125 -0.56921,-0.42121 -1.06403,-0.80451 -1.0996,-0.85178 -0.0356,-0.0473 -0.41398,-0.34121 -0.84088,-0.65318 -0.71641,-0.52355 -1.80102,-1.37256 -2.48036,-1.94158 -0.15462,-0.12952 -0.4457,-0.34029 -0.64683,-0.46838 -0.20112,-0.12809 -0.39478,-0.26605 -0.43036,-0.30659 -0.0356,-0.0405 -0.44307,-0.35935 -0.90556,-0.70846 -0.46247,-0.34912 -0.86998,-0.67065 -0.90555,-0.71453 -0.0356,-0.0439 -0.41397,-0.33358 -0.84088,-0.64381 -0.4269,-0.31023 -0.80529,-0.59962 -0.84087,-0.64309 -0.0356,-0.0435 -0.64683,-0.51279 -1.35834,-1.04293 -0.71151,-0.53015 -1.41008,-1.06138 -1.55238,-1.18052 -0.58604,-0.49063 -2.58876,-2.03335 -4.84361,-3.7311 -1.72317,-1.29742 -1.79431,-1.43503 -0.99734,-1.92928 0.22418,-0.13903 0.52403,-0.35999 0.66633,-0.49102 0.26014,-0.23954 1.32753,-1.0818 2.58883,-2.0428 2.33003,-1.77528 3.88716,-2.98446 5.02416,-3.90146 0.13154,-0.10609 0.59725,-0.45637 1.03492,-0.7784 0.43767,-0.32203 0.82487,-0.62738 0.86045,-0.67854 0.0356,-0.0512 0.38486,-0.33377 0.77619,-0.62801 0.39133,-0.29424 1.06808,-0.8141 1.50388,-1.15525 0.43581,-0.34114 1.36724,-1.05619 2.06985,-1.589 0.70261,-0.53281 1.30658,-1.00124 1.34215,-1.04096 0.0356,-0.0397 0.44308,-0.35786 0.90556,-0.70697 0.46248,-0.34912 0.86998,-0.67066 0.90556,-0.71452 0.0356,-0.0439 0.41397,-0.33359 0.84087,-0.64382 0.42691,-0.31023 0.8053,-0.59874 0.84088,-0.64113 0.0356,-0.0424 0.32664,-0.27888 0.64683,-0.52554 0.32017,-0.24666 0.60154,-0.49257 0.62526,-0.54646 0.0237,-0.0539 0.12486,-0.098 0.22476,-0.098 0.15191,0 0.18719,0.75674 0.21561,4.62482 z"
       style="fill:#000000;stroke-width:0.12936537" />
  </g>
</svg>
