<?xml version="1.0" encoding="UTF-8" standalone="no"?>
<!-- Created with Inkscape (http://www.inkscape.org/) -->

<svg
   xmlns:dc="http://purl.org/dc/elements/1.1/"
   xmlns:cc="http://creativecommons.org/ns#"
   xmlns:rdf="http://www.w3.org/1999/02/22-rdf-syntax-ns#"
   xmlns:svg="http://www.w3.org/2000/svg"
   xmlns="http://www.w3.org/2000/svg"
   xmlns:sodipodi="http://sodipodi.sourceforge.net/DTD/sodipodi-0.dtd"
   xmlns:inkscape="http://www.inkscape.org/namespaces/inkscape"
   width="210mm"
   height="297mm"
   viewBox="0 0 210 297"
   version="1.1"
   id="svg8"
   inkscape:version="0.92.0 r15299"
   sodipodi:docname="icons.svg">
  <defs
     id="defs2" />
  <sodipodi:namedview
     id="base"
     pagecolor="#ffffff"
     bordercolor="#666666"
     borderopacity="1.0"
     inkscape:pageopacity="0.0"
     inkscape:pageshadow="2"
     inkscape:zoom="0.7"
     inkscape:cx="-440.6502"
     inkscape:cy="336.98793"
     inkscape:document-units="mm"
     inkscape:current-layer="layer1"
     showgrid="false"
     showguides="true"
     inkscape:guide-bbox="true"
     inkscape:window-width="1920"
     inkscape:window-height="1017"
     inkscape:window-x="-8"
     inkscape:window-y="-8"
     inkscape:window-maximized="1"
     inkscape:pagecheckerboard="true" />
  <metadata
     id="metadata5">
    <rdf:RDF>
      <cc:Work
         rdf:about="">
        <dc:format>image/svg+xml</dc:format>
        <dc:type
           rdf:resource="http://purl.org/dc/dcmitype/StillImage" />
        <dc:title />
      </cc:Work>
    </rdf:RDF>
  </metadata>
  <g
     inkscape:label="Layer 1"
     inkscape:groupmode="layer"
     id="layer1">
    <g
       id="g4539"
       inkscape:export-xdpi="10.31"
       inkscape:export-ydpi="10.31">
      <rect
         transform="scale(-1)"
         inkscape:export-ydpi="10.308898"
         inkscape:export-xdpi="10.308898"
         y="-99.487823"
         x="200.98669"
         height="78.844513"
         width="78.844513"
         id="rect4518"
         style="fill:#ffffff;fill-opacity:1;stroke:none;stroke-width:8.37174225;stroke-miterlimit:4;stroke-dasharray:none;stroke-opacity:1" />
      <path
         inkscape:export-ydpi="10.308898"
         inkscape:export-xdpi="10.308898"
         sodipodi:nodetypes="cccccccccscccccccccccscsccccccccscccccccscc"
         inkscape:connector-curvature="0"
         id="path4507"
         d="m -219.516,48.090345 0.034,4.624809 10.89903,0.03305 -0.86083,0.0331 v 7.242994 7.24299 l 0.86083,0.03305 -10.89903,0.0331 -0.0339,4.754178 c -0.0214,2.995681 -0.0808,4.754178 -0.16072,4.754178 -0.0697,0 -0.25822,-0.111566 -0.41885,-0.247922 -0.50763,-0.430912 -1.67871,-1.338502 -2.75,-2.131245 -0.56921,-0.421212 -1.06403,-0.804517 -1.0996,-0.851787 -0.0356,-0.04728 -0.41398,-0.341207 -0.84088,-0.65318 -0.71641,-0.523547 -1.80102,-1.372552 -2.48036,-1.941576 -0.15462,-0.12952 -0.4457,-0.340292 -0.64683,-0.46838 -0.20112,-0.128087 -0.39478,-0.266051 -0.43036,-0.306589 -0.0356,-0.04053 -0.44307,-0.359347 -0.90556,-0.708465 -0.46247,-0.349117 -0.86998,-0.670649 -0.90555,-0.714522 -0.0356,-0.04386 -0.41397,-0.333584 -0.84088,-0.643816 -0.4269,-0.310228 -0.80529,-0.599617 -0.84087,-0.643088 -0.0356,-0.04347 -0.64683,-0.512786 -1.35834,-1.042934 -0.71151,-0.530148 -1.41008,-1.061376 -1.55238,-1.180511 -0.58604,-0.490632 -2.58876,-2.033359 -4.84361,-3.731101 -1.72317,-1.297426 -1.79431,-1.435038 -0.99734,-1.929288 0.22418,-0.139025 0.52403,-0.359982 0.66633,-0.491018 0.26014,-0.239542 1.32753,-1.081794 2.58883,-2.042796 2.33003,-1.775277 3.88716,-2.98446 5.02416,-3.901462 0.13154,-0.10609 0.59725,-0.456372 1.03492,-0.778402 0.43767,-0.322031 0.82487,-0.627374 0.86045,-0.678541 0.0356,-0.05117 0.38486,-0.33377 0.77619,-0.628009 0.39133,-0.294235 1.06808,-0.814095 1.50388,-1.155243 0.43581,-0.341148 1.36724,-1.056199 2.06985,-1.589006 0.70261,-0.532808 1.30658,-1.001242 1.34215,-1.040958 0.0356,-0.0397 0.44308,-0.35786 0.90556,-0.706973 0.46248,-0.349118 0.86998,-0.670655 0.90556,-0.714522 0.0356,-0.04386 0.41397,-0.333585 0.84087,-0.643817 0.42691,-0.310232 0.8053,-0.598736 0.84088,-0.641127 0.0356,-0.04239 0.32664,-0.278882 0.64683,-0.525542 0.32017,-0.246661 0.60154,-0.492568 0.62526,-0.546459 0.0237,-0.05389 0.12486,-0.09799 0.22476,-0.09799 0.15191,0 0.18719,0.756738 0.21561,4.624815 z"
         style="fill:#000000;stroke-width:0.12936537" />
      <path
         inkscape:export-ydpi="10.308898"
         inkscape:export-xdpi="10.308898"
         inkscape:connector-curvature="0"
         id="path4516"
         d="m -224.7737,89.866116 -31.27053,0 V 29.99774 h 31.27053"
         style="fill:none;stroke:#000000;stroke-width:9.36499977;stroke-linecap:butt;stroke-linejoin:miter;stroke-miterlimit:4;stroke-dasharray:none;stroke-opacity:1" />
    </g>
    <g
       id="g4550"
       inkscape:export-xdpi="10.31"
       inkscape:export-ydpi="10.31">
      <rect
         transform="scale(-1)"
         inkscape:export-ydpi="5.1500001"
         inkscape:export-xdpi="5.1500001"
         style="fill:#ffffff;fill-opacity:1;stroke:none;stroke-width:8.37174225;stroke-miterlimit:4;stroke-dasharray:none;stroke-opacity:1"
         id="rect4520"
         width="78.844513"
         height="78.844513"
         x="200.98669"
         y="-193.03215" />
      <path
         inkscape:export-ydpi="5.1500001"
         inkscape:export-xdpi="5.1500001"
         style="fill:#000000;stroke-width:0.12936537"
         d="m -230.14484,165.76149 -0.034,-4.62481 -10.89903,-0.0331 0.86083,-0.0331 v -7.243 -7.24299 l -0.86083,-0.0331 10.89903,-0.0331 0.0339,-4.75418 c 0.0214,-2.99568 0.0808,-4.75417 0.16072,-4.75417 0.0697,0 0.25822,0.11156 0.41885,0.24792 0.50763,0.43091 1.67871,1.3385 2.75,2.13124 0.56921,0.42122 1.06403,0.80452 1.0996,0.85179 0.0356,0.0473 0.41398,0.34121 0.84088,0.65318 0.71641,0.52355 1.80102,1.37255 2.48036,1.94158 0.15462,0.12952 0.4457,0.34029 0.64683,0.46838 0.20112,0.12808 0.39478,0.26605 0.43036,0.30659 0.0356,0.0405 0.44307,0.35934 0.90556,0.70846 0.46247,0.34912 0.86998,0.67065 0.90555,0.71452 0.0356,0.0439 0.41397,0.33359 0.84088,0.64382 0.4269,0.31023 0.80529,0.59962 0.84087,0.64309 0.0356,0.0435 0.64683,0.51278 1.35834,1.04293 0.71151,0.53015 1.41008,1.06138 1.55238,1.18051 0.58604,0.49063 2.58876,2.03336 4.84361,3.7311 1.72317,1.29743 1.79431,1.43504 0.99734,1.92929 -0.22418,0.13903 -0.52403,0.35998 -0.66633,0.49102 -0.26014,0.23954 -1.32753,1.08179 -2.58883,2.04279 -2.33003,1.77528 -3.88716,2.98446 -5.02416,3.90147 -0.13154,0.10609 -0.59725,0.45637 -1.03492,0.7784 -0.43767,0.32203 -0.82487,0.62737 -0.86045,0.67854 -0.0356,0.0512 -0.38486,0.33377 -0.77619,0.62801 -0.39133,0.29423 -1.06808,0.81409 -1.50388,1.15524 -0.43581,0.34115 -1.36724,1.0562 -2.06985,1.58901 -0.70261,0.53281 -1.30658,1.00124 -1.34215,1.04096 -0.0356,0.0397 -0.44308,0.35786 -0.90556,0.70697 -0.46248,0.34912 -0.86998,0.67065 -0.90556,0.71452 -0.0356,0.0439 -0.41397,0.33359 -0.84087,0.64382 -0.42691,0.31023 -0.8053,0.59873 -0.84088,0.64112 -0.0356,0.0424 -0.32664,0.27889 -0.64683,0.52555 -0.32017,0.24666 -0.60154,0.49256 -0.62526,0.54646 -0.0237,0.0539 -0.12486,0.098 -0.22476,0.098 -0.15191,0 -0.18719,-0.75674 -0.21561,-4.62482 z"
         id="path4522"
         inkscape:connector-curvature="0"
         sodipodi:nodetypes="cccccccccscccccccccccscsccccccccscccccccscc" />
      <path
         inkscape:export-ydpi="5.1500001"
         inkscape:export-xdpi="5.1500001"
         style="fill:none;stroke:#000000;stroke-width:9.36499977;stroke-linecap:butt;stroke-linejoin:miter;stroke-miterlimit:4;stroke-dasharray:none;stroke-opacity:1"
         d="m -224.7737,183.41045 h -31.27053 v -59.86838 h 31.27053"
         id="path4524"
         inkscape:connector-curvature="0" />
    </g>
    <g
       id="icon_old"
       inkscape:export-xdpi="20.620001"
       inkscape:export-ydpi="20.620001"
       inkscape:label="#g4573">
      <rect
         transform="scale(-1)"
         style="fill:none;fill-opacity:1;stroke:none;stroke-width:8.37174225;stroke-miterlimit:4;stroke-dasharray:none;stroke-opacity:1"
         id="rect4526"
         width="78.844513"
         height="78.844513"
         x="72.162788"
         y="-99.487816"
         inkscape:export-xdpi="10.31"
         inkscape:export-ydpi="10.31" />
      <path
         style="fill:#ffffff;stroke-width:0.12936537"
         d="m -108.00555,48.090345 0.034,4.624809 10.89903,0.03305 -0.86083,0.0331 v 7.242994 l 0,7.24299 0.86083,0.03305 -10.89903,0.0331 -0.0339,4.754178 c -0.0214,2.995681 -0.0808,4.754178 -0.16072,4.754178 -0.0697,0 -0.25822,-0.111566 -0.41885,-0.247922 -0.50763,-0.430912 -1.67871,-1.338502 -2.75,-2.131245 -0.56921,-0.421212 -1.06403,-0.804517 -1.0996,-0.851787 -0.0356,-0.04728 -0.41398,-0.341207 -0.84088,-0.65318 -0.71641,-0.523547 -1.80102,-1.372552 -2.48036,-1.941576 -0.15462,-0.12952 -0.4457,-0.340292 -0.64683,-0.46838 -0.20112,-0.128087 -0.39478,-0.266051 -0.43036,-0.306589 -0.0356,-0.04053 -0.44307,-0.359347 -0.90556,-0.708465 -0.46247,-0.349117 -0.86998,-0.670649 -0.90555,-0.714522 -0.0356,-0.04386 -0.41397,-0.333584 -0.84088,-0.643816 -0.4269,-0.310228 -0.80529,-0.599617 -0.84087,-0.643088 -0.0356,-0.04347 -0.64683,-0.512786 -1.35834,-1.042934 -0.71151,-0.530148 -1.41008,-1.061376 -1.55238,-1.180511 -0.58603,-0.490632 -2.58874,-2.033359 -4.84358,-3.731101 -1.72317,-1.297426 -1.79431,-1.435038 -0.99734,-1.929288 0.22418,-0.139025 0.52403,-0.359982 0.66633,-0.491018 0.26014,-0.239542 1.32752,-1.081794 2.58882,-2.042796 2.33001,-1.775277 3.88714,-2.98446 5.02414,-3.901462 0.13154,-0.10609 0.59725,-0.456372 1.03492,-0.778402 0.43767,-0.322031 0.82487,-0.627374 0.86045,-0.678541 0.0356,-0.05117 0.38486,-0.33377 0.77619,-0.628009 0.39133,-0.294235 1.06808,-0.814095 1.50388,-1.155243 0.43581,-0.341148 1.36724,-1.056199 2.06985,-1.589006 0.70261,-0.532808 1.30658,-1.001242 1.34215,-1.040958 0.0356,-0.0397 0.44308,-0.35786 0.90556,-0.706973 0.46248,-0.349118 0.86998,-0.670655 0.90556,-0.714522 0.0356,-0.04386 0.41397,-0.333585 0.84087,-0.643817 0.42691,-0.310232 0.8053,-0.598736 0.84088,-0.641127 0.0356,-0.04239 0.32664,-0.278882 0.64683,-0.525542 0.32017,-0.246661 0.60154,-0.492568 0.62526,-0.546459 0.0237,-0.05389 0.12486,-0.09799 0.22476,-0.09799 0.15191,0 0.18719,0.756738 0.21561,4.624815 z"
         id="path4528"
         inkscape:connector-curvature="0"
         sodipodi:nodetypes="cccccccccscccccccccccscsccccccccscccccccscc"
         inkscape:export-xdpi="10.31"
         inkscape:export-ydpi="10.31" />
      <path
         style="fill:none;stroke:#ffffff;stroke-width:9.36499977;stroke-linecap:butt;stroke-linejoin:miter;stroke-miterlimit:4;stroke-dasharray:none;stroke-opacity:1"
         d="m -110.8793,89.866116 -31.27051,0 V 29.99774 h 31.27051"
         id="path4530"
         inkscape:connector-curvature="0"
         inkscape:export-xdpi="10.31"
         inkscape:export-ydpi="10.31" />
      <path
         inkscape:export-ydpi="10.31"
         inkscape:export-xdpi="10.31"
         sodipodi:nodetypes="cccccccccscccccccccccscsccccccccscccccccscc"
         inkscape:connector-curvature="0"
         id="path4534"
         d="m -95.45101,71.991297 -0.034,-4.624809 -10.89903,-0.03305 0.86083,-0.0331 0,-7.242994 v -7.24299 l -0.86083,-0.03305 10.89903,-0.0331 0.0339,-4.754178 c 0.0214,-2.995681 0.0808,-4.754178 0.16072,-4.754178 0.0697,0 0.25822,0.111566 0.41885,0.247922 0.50763,0.430912 1.67871,1.338502 2.75,2.131245 0.56921,0.421212 1.06403,0.804517 1.0996,0.851787 0.0356,0.04728 0.41398,0.341207 0.84088,0.65318 0.71641,0.523547 1.80102,1.372552 2.48036,1.941576 0.15462,0.12952 0.4457,0.340292 0.64683,0.46838 0.20112,0.128087 0.39478,0.266051 0.43036,0.306589 0.0356,0.04053 0.44307,0.359347 0.90556,0.708465 0.46247,0.349117 0.86998,0.670649 0.90555,0.714522 0.0356,0.04386 0.41397,0.333584 0.84088,0.643816 0.4269,0.310228 0.80529,0.599617 0.84087,0.643088 0.0356,0.04347 0.64683,0.512786 1.35834,1.042934 0.71151,0.530148 1.41008,1.061376 1.55238,1.180511 0.58604,0.490632 2.58876,2.033359 4.84361,3.731101 1.72317,1.297426 1.79431,1.435038 0.99734,1.929288 -0.22418,0.139025 -0.52403,0.359982 -0.66633,0.491018 -0.26014,0.239542 -1.32753,1.081794 -2.58883,2.042796 -2.33003,1.775277 -3.88716,2.98446 -5.02416,3.901462 -0.13154,0.10609 -0.59725,0.456372 -1.03492,0.778402 -0.43767,0.322031 -0.82487,0.627374 -0.86045,0.678541 -0.0356,0.05117 -0.38486,0.33377 -0.77619,0.628009 -0.39133,0.294235 -1.06808,0.814095 -1.50388,1.155243 -0.43581,0.341148 -1.36724,1.056199 -2.06985,1.589006 -0.70261,0.532808 -1.30658,1.001242 -1.34215,1.040958 -0.0356,0.0397 -0.44308,0.35786 -0.90556,0.706973 -0.46248,0.349118 -0.86998,0.670655 -0.90556,0.714522 -0.0356,0.04386 -0.41397,0.333585 -0.84087,0.643817 -0.42691,0.310232 -0.8053,0.598736 -0.84088,0.641127 -0.0356,0.04239 -0.32664,0.278882 -0.64683,0.525542 -0.32017,0.246661 -0.60154,0.492568 -0.62526,0.546459 -0.0237,0.05389 -0.12486,0.09799 -0.22476,0.09799 -0.15191,0 -0.18719,-0.756738 -0.21561,-4.624815 z"
         style="fill:#ffffff;stroke-width:0.12936537" />
    </g>
    <rect
       transform="scale(-1)"
       style="fill:none;fill-opacity:1;stroke:none;stroke-width:8.37174225;stroke-miterlimit:4;stroke-dasharray:none;stroke-opacity:1"
       id="rect8444"
       width="78.844513"
       height="78.844513"
       x="64.144707"
       y="-191.96307"
       inkscape:export-xdpi="10.31"
       inkscape:export-ydpi="10.31" />
    <g
       id="icon"
       transform="translate(-31.633869,-98.02475)"
       inkscape:label="#g8538">
      <rect
         y="-289.98782"
         x="32.510838"
         height="78.844513"
         width="78.844513"
         id="rect8523"
         style="fill:none;fill-opacity:1;stroke:none;stroke-width:8.37174225;stroke-miterlimit:4;stroke-dasharray:none;stroke-opacity:1"
         inkscape:export-xdpi="5.1500001"
         inkscape:export-ydpi="5.1500001"
         transform="scale(-1)" />
      <rect
         inkscape:export-ydpi="10.31"
         inkscape:export-xdpi="10.31"
         y="-289.98782"
         x="32.510838"
         height="78.844513"
         width="78.844513"
         id="rect8506"
         style="fill:none;fill-opacity:1;stroke:none;stroke-width:8.37174225;stroke-miterlimit:4;stroke-dasharray:none;stroke-opacity:1"
         transform="scale(-1)" />
      <path
         id="path8508"
         transform="scale(0.26458333)"
         d="m -210.28711,883.42578 c -0.30206,0 -0.52654,6.64646 -0.60742,17.96875 l -0.12891,17.96875 -6.51367,0.0195 0.51367,-0.0195 -41.1914,-0.125 -0.12891,-17.47851 c -0.10741,-14.61952 -0.24031,-17.48047 -0.81445,-17.48047 -0.37758,0 -0.76004,0.16737 -0.84961,0.37109 -0.0897,0.20372 -1.15319,1.1322 -2.36328,2.06445 -1.21017,0.93226 -2.31077,1.82608 -2.44532,1.98633 -0.13447,0.16022 -1.56421,1.25131 -3.17773,2.42383 -1.61348,1.17252 -3.04318,2.26767 -3.17774,2.43359 -0.13447,0.16581 -1.67587,1.37971 -3.42382,2.69922 -1.74796,1.31947 -3.28733,2.52183 -3.42188,2.67188 -0.13444,0.15012 -2.41673,1.92177 -5.07226,3.93554 -2.65554,2.01377 -6.17707,4.71648 -7.82422,6.00586 -1.64712,1.28939 -4.20455,3.25319 -5.6836,4.36524 -1.47904,1.11209 -2.79904,2.18149 -2.93359,2.375 -0.13448,0.1934 -1.59777,1.34733 -3.25195,2.56445 -1.65419,1.21712 -3.41495,2.54044 -3.91211,2.94141 -4.29733,3.46586 -10.18195,8.03637 -18.98828,14.74609 -4.76712,3.63213 -8.80195,6.81536 -9.78516,7.7207 -0.53783,0.49527 -1.67028,1.33001 -2.51758,1.85547 -3.01217,1.86803 -2.74324,2.38735 3.76953,7.29102 8.52223,6.41665 16.09173,12.24721 18.30664,14.10156 0.53783,0.45026 3.17802,2.45918 5.86719,4.46289 2.68917,2.00372 4.99826,3.777 5.13281,3.94141 0.13448,0.16433 1.56621,1.25912 3.17969,2.43164 1.61352,1.17252 3.04318,2.26572 3.17774,2.43164 0.13443,0.16581 1.67395,1.38166 3.42187,2.70117 1.74799,1.31951 3.28732,2.52466 3.42188,2.67774 0.13447,0.15322 0.86681,0.67412 1.62695,1.1582 0.76018,0.48412 1.86092,1.28196 2.44531,1.77148 2.56759,2.15067 6.66731,5.35912 9.375,7.33789 1.61348,1.1791 3.04318,2.28998 3.17774,2.46875 0.13443,0.17866 2.0049,1.62678 4.15625,3.21876 4.04897,2.9962 8.47397,6.426 10.39257,8.0547 0.60711,0.5154 1.32056,0.9375 1.58399,0.9375 0.30206,0 0.52654,-6.6465 0.60742,-17.96877 l 0.12891,-17.96875 6.51367,-0.0195 -0.51367,0.0195 41.1914,0.125 0.12891,17.48047 c 0.10741,14.61745 0.24034,17.47855 0.81445,17.47855 0.37758,0 0.76004,-0.1674 0.84961,-0.3711 0.0897,-0.2037 1.15319,-1.1322 2.36328,-2.0645 1.21017,-0.9322 2.31076,-1.8261 2.44531,-1.9863 0.13448,-0.1603 1.56422,-1.2513 3.17774,-2.4238 1.61348,-1.1726 3.04318,-2.2677 3.17773,-2.4336 0.13448,-0.1658 1.67588,-1.37974 3.42383,-2.69925 1.74796,-1.31947 3.28733,-2.52183 3.42188,-2.67187 0.13443,-0.15013 2.41673,-1.92178 5.07226,-3.93555 2.65554,-2.01377 6.17707,-4.71648 7.82422,-6.00586 1.64712,-1.28939 4.20455,-3.25319 5.6836,-4.36524 1.47904,-1.11208 2.79904,-2.17953 2.93359,-2.37304 0.13447,-0.1934 1.59777,-1.34733 3.25195,-2.56446 1.65419,-1.21712 3.41495,-2.54238 3.91211,-2.94335 4.29732,-3.46583 10.18187,-8.03642 18.98828,-14.7461 4.76712,-3.63216 8.80195,-6.81535 9.78516,-7.7207 0.53783,-0.49527 1.67028,-1.33 2.51758,-1.85547 3.01217,-1.86803 2.74323,-2.38734 -3.76953,-7.29102 -8.52227,-6.41665 -16.09169,-12.24721 -18.30664,-14.10156 -0.53783,-0.45025 -3.17802,-2.45917 -5.86719,-4.46289 -2.68917,-2.00372 -4.99826,-3.777 -5.13281,-3.94141 -0.13448,-0.16429 -1.56621,-1.25716 -3.17969,-2.42968 -1.61352,-1.17253 -3.04319,-2.26768 -3.17774,-2.4336 -0.13443,-0.1658 -1.67395,-1.38166 -3.42187,-2.70117 -1.748,-1.31951 -3.28928,-2.52466 -3.42383,-2.67773 -0.13448,-0.15323 -0.86486,-0.67412 -1.625,-1.15821 -0.76018,-0.48412 -1.86092,-1.28196 -2.44531,-1.77148 -2.56759,-2.15067 -6.66731,-5.35912 -9.375,-7.33789 -1.61348,-1.1791 -3.04319,-2.28998 -3.17774,-2.46875 -0.13443,-0.17866 -2.0049,-1.62674 -4.15625,-3.21875 -4.04897,-2.99618 -8.47397,-6.42605 -10.39257,-8.05469 -0.60711,-0.51538 -1.32056,-0.9375 -1.58399,-0.9375 z"
         style="fill:#ffffff;stroke:#000000;stroke-width:3.77952766;stroke-miterlimit:4;stroke-dasharray:none"
         inkscape:connector-curvature="0" />
      <path
         inkscape:connector-curvature="0"
         id="path8510"
         d="m -107.17969,215.81445 v 69.23438 h 35.953128 v -9.36524 h -26.587891 v -50.5039 h 26.587891 v -9.36524 z"
         style="color:#000000;font-style:normal;font-variant:normal;font-weight:normal;font-stretch:normal;font-size:medium;line-height:normal;font-family:sans-serif;font-variant-ligatures:normal;font-variant-position:normal;font-variant-caps:normal;font-variant-numeric:normal;font-variant-alternates:normal;font-feature-settings:normal;text-indent:0;text-align:start;text-decoration:none;text-decoration-line:none;text-decoration-style:solid;text-decoration-color:#000000;letter-spacing:normal;word-spacing:normal;text-transform:none;writing-mode:lr-tb;direction:ltr;text-orientation:mixed;dominant-baseline:auto;baseline-shift:baseline;text-anchor:start;white-space:normal;shape-padding:0;clip-rule:nonzero;display:inline;overflow:visible;visibility:visible;opacity:1;isolation:auto;mix-blend-mode:normal;color-interpolation:sRGB;color-interpolation-filters:linearRGB;solid-color:#000000;solid-opacity:1;vector-effect:none;fill:#ffffff;fill-opacity:1;fill-rule:nonzero;stroke:#000000;stroke-width:1;stroke-linecap:butt;stroke-linejoin:miter;stroke-miterlimit:4;stroke-dasharray:none;stroke-dashoffset:0;stroke-opacity:1;color-rendering:auto;image-rendering:auto;shape-rendering:auto;text-rendering:auto;enable-background:accumulate" />
    </g>
  </g>
</svg>
